<svg width="44" height="42" viewBox="0 0 44 42" fill="none" xmlns="http://www.w3.org/2000/svg">
<path d="M26.4525 18.6339H24.2503V16.2538C24.2503 15.6225 24.0183 15.0171 23.6053 14.5708C23.1923 14.1244 22.6322 13.8737 22.0481 13.8737C21.4641 13.8737 20.904 14.1244 20.491 14.5708C20.078 15.0171 19.846 15.6225 19.846 16.2538V18.6339H17.6438C17.0597 18.6339 16.4996 18.8846 16.0866 19.331C15.6736 19.7773 15.4416 20.3827 15.4416 21.0139C15.4416 21.6452 15.6736 22.2506 16.0866 22.6969C16.4996 23.1433 17.0597 23.394 17.6438 23.394H19.846V25.7741C19.846 26.4053 20.078 27.0107 20.491 27.4571C20.904 27.9034 21.4641 28.1542 22.0481 28.1542C22.6322 28.1542 23.1923 27.9034 23.6053 27.4571C24.0183 27.0107 24.2503 26.4053 24.2503 25.7741V23.394H26.4525C27.0365 23.394 27.5967 23.1433 28.0097 22.6969C28.4226 22.2506 28.6547 21.6452 28.6547 21.0139C28.6547 20.3827 28.4226 19.7773 28.0097 19.331C27.5967 18.8846 27.0365 18.6339 26.4525 18.6339ZM40.0179 4.35334C37.6697 1.84165 34.5682 0.319746 31.2731 0.0622477C27.978 -0.195251 24.7062 0.828614 22.0481 2.94909C19.2462 0.696672 15.7587 -0.324684 12.2879 0.0907028C8.81715 0.50609 5.6209 2.32736 3.34283 5.18777C1.06475 8.04817 -0.125928 11.7352 0.0105603 15.5065C0.147048 19.2777 1.60057 22.853 4.07841 25.5123L17.2915 39.9118C18.5302 41.2489 20.2093 42 21.9601 42C23.7108 42 25.3899 41.2489 26.6287 39.9118L39.8417 25.5123C41.143 24.1382 42.1803 22.4996 42.8938 20.6908C43.6073 18.882 43.9831 16.9386 43.9994 14.9724C44.0158 13.0062 43.6725 11.0558 42.9892 9.23342C42.3059 7.41105 41.2961 5.75258 40.0179 4.35334ZM36.9128 22.1088L23.6998 36.3893C23.4951 36.6124 23.2515 36.7894 22.9831 36.9103C22.7148 37.0311 22.4269 37.0933 22.1362 37.0933C21.8455 37.0933 21.5577 37.0311 21.2893 36.9103C21.021 36.7894 20.7774 36.6124 20.5727 36.3893L7.35965 22.1088C5.63261 20.2008 4.66553 17.6377 4.66553 14.9685C4.66553 12.2993 5.63261 9.73628 7.35965 7.82827C9.11953 5.95035 11.4931 4.89736 13.9662 4.89736C16.4393 4.89736 18.8128 5.95035 20.5727 7.82827C20.7774 8.05135 21.021 8.22841 21.2893 8.34925C21.5577 8.47008 21.8455 8.53229 22.1362 8.53229C22.4269 8.53229 22.7148 8.47008 22.9831 8.34925C23.2515 8.22841 23.4951 8.05135 23.6998 7.82827C25.4597 5.95035 27.8332 4.89736 30.3063 4.89736C32.7794 4.89736 35.1529 5.95035 36.9128 7.82827C38.6531 9.7384 39.6285 12.3116 39.6285 14.9923C39.6285 17.6731 38.6531 20.2463 36.9128 22.1564V22.1088Z" fill="#326976"/>
</svg>
